<?xml version="1.0" encoding="utf-8"?>
<svg xmlns="http://www.w3.org/2000/svg" viewBox="0 0 24 24" width="35" height="35">
  <path d="M12 2C6.486 2 2 6.486 2 12C2 17.514 6.486 22 12 22C17.514 22 22 17.514 22 12C22 6.486 17.514 2 12 2 z M 12 6C13.7 6 15 7.3 15 9L15 10C15.6 10 16 10.4 16 11L16 15C16 15.6 15.6 16 15 16L9 16C8.4 16 8 15.6 8 15L8 11C8 10.4 8.4 10 9 10L9 9C9 7.3 10.3 6 12 6 z M 12 7.5C11.2 7.5 10.5 8.2 10.5 9L10.5 10L12 10L13.5 10L13.5 9C13.5 8.2 12.8 7.5 12 7.5 z M 12 12 A 1 1 0 0 0 11 13 A 1 1 0 0 0 12 14 A 1 1 0 0 0 13 13 A 1 1 0 0 0 12 12 z" fill="rgb(157, 5, 5)" />
</svg>